# xmcd
#
# Track frame offsets: 
#        150
#        13034
#        27674
#        47224
#        63434
#        81021
#        91117
#        108493
#        122488
#        136695
#        156193
#        177950
#        187373
#
# Disc length: 2826 seconds
#
# Revision: 2
# Processed by: cddbd v1.5.2PL0 Copyright (c) Steve Scherf et al.
# Submitted via: ExactAudioCopy v1.0b3
#
DISCID=ab0b080d
DTITLE=Ruthie And The Wranglers - Someday
DYEAR=2003
DGENRE=Rockabilly
TTITLE0=New Love
TTITLE1=Someday
TTITLE2=For Cryin' Out Loud
TTITLE3=I Say Tomato
TTITLE4=Revenge of Surftilicus
TTITLE5=Lost Ball (In The High Weeds)
TTITLE6=Tell 'Em What They Oughta
TTITLE7=It's Blue
TTITLE8=If A Heart Breaks
TTITLE9=Dirty Secret
TTITLE10=I Don't Wanna Know
TTITLE11=I'm Not Your Doormat
TTITLE12=Catwalk
EXTD=Submitted by ecto@cox.net
EXTT0=
EXTT1=
EXTT2=
EXTT3=
EXTT4=
EXTT5=
EXTT6=
EXTT7=
EXTT8=
EXTT9=
EXTT10=
EXTT11=
EXTT12=
PLAYORDER=
